<?xml version="1.0" encoding="UTF-8" standalone="no"?>
<svg
   xmlns:dc="http://purl.org/dc/elements/1.1/"
   xmlns:cc="http://creativecommons.org/ns#"
   xmlns:rdf="http://www.w3.org/1999/02/22-rdf-syntax-ns#"
   xmlns:svg="http://www.w3.org/2000/svg"
   xmlns="http://www.w3.org/2000/svg"
   version="1.1"
   id="svg2"
   viewBox="0 0 128 128"
   height="128"
   width="128">
  <defs
     id="defs4">
    <filter
       id="filter3470"
       style="color-interpolation-filters:sRGB">
      <feFlood
         id="feFlood3472"
         result="flood"
         flood-color="rgb(0,0,0)"
         flood-opacity="0.501961" />
      <feComposite
         id="feComposite3474"
         result="composite1"
         operator="in"
         in2="SourceGraphic"
         in="flood" />
      <feGaussianBlur
         id="feGaussianBlur3476"
         result="blur"
         stdDeviation="5"
         in="composite1" />
      <feOffset
         id="feOffset3478"
         result="offset"
         dy="3"
         dx="0" />
      <feComposite
         id="feComposite3480"
         result="composite2"
         operator="over"
         in2="offset"
         in="SourceGraphic" />
    </filter>
  </defs>
  <metadata
     id="metadata7">
    <rdf:RDF>
      <cc:Work
         rdf:about="">
        <dc:format>image/svg+xml</dc:format>
        <dc:type
           rdf:resource="http://purl.org/dc/dcmitype/StillImage" />
        <dc:title></dc:title>
      </cc:Work>
    </rdf:RDF>
  </metadata>
  <g
     transform="translate(0,-924.36216)"
     id="layer1">
    <circle
       r="64"
       cy="988.36212"
       cx="64"
       id="path3338"
       style="fill:#00897b;fill-opacity:1;fill-rule:evenodd;stroke:none;stroke-width:1;stroke-miterlimit:4;stroke-dasharray:none;stroke-opacity:0.53892212" />
    <g
       transform="matrix(1.2,0,0,1.2,-12.542854,-203.58019)"
       id="g4300">
      <g
         id="text3340"
         style="font-style:normal;font-weight:normal;font-size:8.38301659px;line-height:100%;font-family:sans-serif;text-align:center;letter-spacing:0px;word-spacing:0px;text-anchor:middle;fill:#000000;fill-opacity:1;stroke:none;stroke-width:1px;stroke-linecap:butt;stroke-linejoin:miter;stroke-opacity:1">
        <path
           id="path4148"
           style="font-style:normal;font-variant:normal;font-weight:500;font-stretch:normal;font-size:20.04474068px;font-family:Roboto;-inkscape-font-specification:'Roboto Medium';fill:#ffffff"
           d="m 41.965515,1014.8288 -2.47623,0 -6.352069,-10.1105 0,10.1105 -2.47623,0 0,-14.2506 2.47623,0 6.371644,10.1496 0,-10.1496 2.456655,0 0,14.2506 z" />
        <path
           id="path4150"
           style="font-style:normal;font-variant:normal;font-weight:500;font-stretch:normal;font-size:20.04474068px;font-family:Roboto;-inkscape-font-specification:'Roboto Medium';fill:#ffffff"
           d="m 53.084082,1011.5108 -5.520133,0 -1.154922,3.318 -2.574105,0 5.383109,-14.2506 2.221756,0 5.392897,14.2506 -2.583893,0 -1.164709,-3.318 z m -4.825223,-1.9966 4.130313,0 -2.065157,-5.9116 -2.065156,5.9116 z" />
        <path
           id="path4152"
           style="font-style:normal;font-variant:normal;font-weight:500;font-stretch:normal;font-size:20.04474068px;font-family:Roboto;-inkscape-font-specification:'Roboto Medium';fill:#ffffff"
           d="m 67.579327,1002.5749 -4.443512,0 0,12.2539 -2.456655,0 0,-12.2539 -4.404362,0 0,-1.9967 11.304529,0 0,1.9967 z" />
        <path
           id="path4154"
           style="font-style:normal;font-variant:normal;font-weight:500;font-stretch:normal;font-size:20.04474068px;font-family:Roboto;-inkscape-font-specification:'Roboto Medium';fill:#ffffff"
           d="m 72.071776,1014.8288 -2.466443,0 0,-14.2506 2.466443,0 0,14.2506 z" />
        <path
           id="path4156"
           style="font-style:normal;font-variant:normal;font-weight:500;font-stretch:normal;font-size:20.04474068px;font-family:Roboto;-inkscape-font-specification:'Roboto Medium';fill:#ffffff"
           d="m 80.156229,1011.7262 3.621364,-11.148 2.720917,0 -5.128635,14.2506 -2.39793,0 -5.10906,-14.2506 2.711129,0 3.582215,11.148 z" />
        <path
           id="path4158"
           style="font-style:normal;font-variant:normal;font-weight:500;font-stretch:normal;font-size:20.04474068px;font-family:Roboto;-inkscape-font-specification:'Roboto Medium';fill:#ffffff"
           d="m 96.423004,1008.4669 -5.852907,0 0,4.3848 6.841442,0 0,1.9771 -9.317672,0 0,-14.2506 9.24916,0 0,1.9967 -6.77293,0 0,3.9345 5.852907,0 0,1.9575 z" />
        <path
           id="path4160"
           style="font-style:normal;font-variant:normal;font-weight:500;font-stretch:normal;font-size:16.76603317px;font-family:Roboto;-inkscape-font-specification:'Roboto Medium';fill:#ffffff"
           d="m 38.112729,1032.2779 0,-11.9196 3.520212,0 q 1.580002,0 2.799797,0.704 1.227981,0.7041 1.899277,1.9975 0.671296,1.2935 0.671296,2.9636 l 0,0.5976 q 0,1.6946 -0.679482,2.9799 -0.671297,1.2853 -1.923837,1.9811 -1.244354,0.6959 -2.857103,0.6959 l -3.43016,0 z m 2.071195,-10.2496 0,8.5959 1.350779,0 q 1.629121,0 2.496894,-1.0151 0.87596,-1.0233 0.892333,-2.9308 l 0,-0.6631 q 0,-1.9402 -0.843213,-2.9635 -0.843214,-1.0234 -2.447776,-1.0234 l -1.449017,0 z" />
        <path
           id="path4162"
           style="font-style:normal;font-variant:normal;font-weight:500;font-stretch:normal;font-size:16.76603317px;font-family:Roboto;-inkscape-font-specification:'Roboto Medium';fill:#ffffff"
           d="m 56.049438,1026.9566 -4.895551,0 0,3.6676 5.722391,0 0,1.6537 -7.793586,0 0,-11.9196 7.73628,0 0,1.67 -5.665085,0 0,3.291 4.895551,0 0,1.6373 z" />
        <path
           id="path4164"
           style="font-style:normal;font-variant:normal;font-weight:500;font-stretch:normal;font-size:16.76603317px;font-family:Roboto;-inkscape-font-specification:'Roboto Medium';fill:#ffffff"
           d="m 58.579078,1032.2779 0,-11.9196 4.085083,0 q 2.022076,0 3.078139,0.8105 1.056064,0.8104 1.056064,2.415 0,0.8186 -0.442073,1.4736 -0.442074,0.6549 -1.293474,1.0151 0.966012,0.262 1.489951,0.9906 0.532125,0.7204 0.532125,1.7355 0,1.6783 -1.080624,2.5788 -1.072436,0.9005 -3.078139,0.9005 l -4.347052,0 z m 2.071194,-5.3786 0,3.7249 2.300418,0 q 0.974198,0 1.522696,-0.483 0.548499,-0.483 0.548499,-1.3426 0,-1.8583 -1.899278,-1.8993 l -2.472335,0 z m 0,-1.5227 2.030262,0 q 0.966012,0 1.506324,-0.4338 0.548498,-0.4421 0.548498,-1.2444 0,-0.8841 -0.507566,-1.2771 -0.499379,-0.393 -1.563629,-0.393 l -2.013889,0 0,3.3483 z" />
        <path
           id="path4166"
           style="font-style:normal;font-variant:normal;font-weight:500;font-stretch:normal;font-size:16.76603317px;font-family:Roboto;-inkscape-font-specification:'Roboto Medium';fill:#ffffff"
           d="m 77.874752,1020.3583 0,7.9655 q 0,1.8993 -1.219795,3.0126 -1.211607,1.1052 -3.233683,1.1052 -2.046635,0 -3.250056,-1.0888 -1.203421,-1.097 -1.203421,-3.0372 l 0,-7.9573 2.063008,0 0,7.9737 q 0,1.1952 0.605804,1.8256 0.605804,0.6303 1.784665,0.6303 2.39047,0 2.39047,-2.5214 l 0,-7.9082 2.063008,0 z" />
        <path
           id="path4168"
           style="font-style:normal;font-variant:normal;font-weight:500;font-stretch:normal;font-size:16.76603317px;font-family:Roboto;-inkscape-font-specification:'Roboto Medium';fill:#ffffff"
           d="m 89.229483,1030.7306 q -0.646737,0.8433 -1.792852,1.2771 -1.146116,0.4339 -2.60332,0.4339 -1.498136,0 -2.652439,-0.6795 -1.154302,-0.6794 -1.784665,-1.9402 -0.622177,-1.2689 -0.646737,-2.9553 l 0,-0.9333 q 0,-2.7015 1.293473,-4.216 1.293474,-1.5227 3.610264,-1.5227 1.98933,0 3.160005,0.9823 1.170675,0.9824 1.408085,2.8326 l -2.030262,0 q -0.343835,-2.1531 -2.496895,-2.1531 -1.391712,0 -2.120314,1.007 -0.720415,0.9987 -0.744975,2.9389 l 0,0.9169 q 0,1.9321 0.810468,3.0045 0.818654,1.0642 2.267671,1.0642 1.588189,0 2.259485,-0.7204 l 0,-2.3331 -2.455962,0 0,-1.5719 4.51897,0 0,4.5681 z" />
      </g>
      <g
         id="g4170">
        <path
           style="fill:#ffffff"
           d="m 54.812555,949.43739 -3.622346,3.62235 4.161634,4.18806 c -1.901223,1.3103 -3.493878,3.03165 -4.650029,5.03565 l -7.219236,0 0,5.13842 5.369407,0 C 48.72352,968.26972 48.621,969.11755 48.621,969.99108 l 0,2.56922 -5.138422,0 0,5.13842 5.138422,0 0,2.56921 c 0,0.20262 0.0065,0.40371 0.01664,0.60389 l 10.260204,-10.26021 0,-3.18974 3.18974,0 14.578435,-14.57844 -3.406037,-3.40604 -5.574944,5.57495 c -1.181843,-0.28261 -2.364157,-0.43652 -3.648769,-0.43652 -1.284613,0 -2.466195,0.15391 -3.622346,0.43652 l -5.601367,-5.57495 z m 29.7774,13.02126 -4.963223,4.96322 4.963223,0 0,-4.96322 z m -5.323402,5.3234 -10.091861,10.09186 0,4.96323 -4.963228,0 -9.607385,9.60738 c 2.604379,2.02784 5.872939,3.23868 9.432189,3.23868 5.703686,0 10.662454,-3.10872 13.334453,-7.70764 l 7.219234,0 0,-5.13842 -5.369405,0 c 0.128467,-0.84784 0.230986,-1.69567 0.230986,-2.56921 l 0,-2.56921 5.138419,0 0,-5.13842 -5.138419,0 0,-2.56922 c 0,-0.75018 -0.08221,-1.48046 -0.184983,-2.20903 z m -35.783975,15.05509 0,3.18974 3.189737,-3.18974 -3.189737,0 z"
           id="path4310" />
        <rect
           style="fill:#ffffff;fill-opacity:1;fill-rule:evenodd;stroke:none;stroke-width:1;stroke-miterlimit:4;stroke-dasharray:none;stroke-opacity:0.53892212"
           id="rect4319"
           width="62.010242"
           height="5.3151774"
           x="-674.97266"
           y="731.51654"
           transform="matrix(0.70710678,-0.70710678,0.70710678,0.70710678,0,0)" />
      </g>
    </g>
  </g>
</svg>
