<?xml version="1.0" encoding="UTF-8" standalone="no"?>
<svg
   xmlns:dc="http://purl.org/dc/elements/1.1/"
   xmlns:cc="http://creativecommons.org/ns#"
   xmlns:rdf="http://www.w3.org/1999/02/22-rdf-syntax-ns#"
   xmlns:svg="http://www.w3.org/2000/svg"
   xmlns="http://www.w3.org/2000/svg"
   version="1.1"
   id="svg2"
   viewBox="0 0 128 128"
   height="128"
   width="128">
  <defs
     id="defs4">
    <filter
       id="filter3470"
       style="color-interpolation-filters:sRGB">
      <feFlood
         id="feFlood3472"
         result="flood"
         flood-color="rgb(0,0,0)"
         flood-opacity="0.501961" />
      <feComposite
         id="feComposite3474"
         result="composite1"
         operator="in"
         in2="SourceGraphic"
         in="flood" />
      <feGaussianBlur
         id="feGaussianBlur3476"
         result="blur"
         stdDeviation="5"
         in="composite1" />
      <feOffset
         id="feOffset3478"
         result="offset"
         dy="3"
         dx="0" />
      <feComposite
         id="feComposite3480"
         result="composite2"
         operator="over"
         in2="offset"
         in="SourceGraphic" />
    </filter>
  </defs>
  <metadata
     id="metadata7">
    <rdf:RDF>
      <cc:Work
         rdf:about="">
        <dc:format>image/svg+xml</dc:format>
        <dc:type
           rdf:resource="http://purl.org/dc/dcmitype/StillImage" />
        <dc:title></dc:title>
      </cc:Work>
    </rdf:RDF>
  </metadata>
  <g
     transform="translate(0,-924.36216)"
     id="layer1">
    <circle
       transform="matrix(0.50111853,0,0,0.50111853,-0.10690467,525.1109)"
       r="106.42857"
       cy="924.86218"
       cx="127.5"
       id="path3338"
       style="fill:#00897b;fill-opacity:1;fill-rule:evenodd;stroke:none;stroke-width:1;stroke-miterlimit:4;stroke-dasharray:none;stroke-opacity:0.53892212;filter:url(#filter3470)" />
    <g
       transform="translate(0,-4.708796)"
       id="g4300">
      <text
         xml:space="preserve"
         style="font-style:normal;font-weight:normal;font-size:8.38301659px;line-height:100%;font-family:sans-serif;text-align:center;letter-spacing:0px;word-spacing:0px;text-anchor:middle;fill:#000000;fill-opacity:1;stroke:none;stroke-width:1px;stroke-linecap:butt;stroke-linejoin:miter;stroke-opacity:1"
         x="63.605614"
         y="1014.8288"
         id="text3340"><tspan
           id="tspan3342"
           x="63.605614"
           y="1014.8288"
           style="font-style:normal;font-variant:normal;font-weight:500;font-stretch:normal;font-size:20.04474068px;font-family:Roboto;-inkscape-font-specification:'Roboto Medium';fill:#ffffff">NATIVE</tspan><tspan
           id="tspan4306"
           x="63.605614"
           y="1032.278"
           style="font-style:normal;font-variant:normal;font-weight:500;font-stretch:normal;font-size:16.76603317px;font-family:Roboto;-inkscape-font-specification:'Roboto Medium';fill:#ffffff">DEBUG</tspan></text>
      <path
         id="path4310"
         d="m 54.812555,949.43739 -3.622346,3.62235 4.161634,4.18806 c -1.901223,1.3103 -3.493878,3.03165 -4.650029,5.03565 l -7.219236,0 0,5.13842 5.369407,0 C 48.72352,968.26972 48.621,969.11755 48.621,969.99108 l 0,2.56922 -5.138422,0 0,5.13842 5.138422,0 0,2.56921 c 0,0.20262 0.0065,0.40371 0.01664,0.60389 l 10.260204,-10.26021 0,-3.18974 3.18974,0 14.578435,-14.57844 -3.406037,-3.40604 -5.574944,5.57495 c -1.181843,-0.28261 -2.364157,-0.43652 -3.648769,-0.43652 -1.284613,0 -2.466195,0.15391 -3.622346,0.43652 l -5.601367,-5.57495 z m 29.7774,13.02126 -4.963223,4.96322 4.963223,0 0,-4.96322 z m -5.323402,5.3234 -10.091861,10.09186 0,4.96323 -4.963228,0 -9.607385,9.60738 c 2.604379,2.02784 5.872939,3.23868 9.432189,3.23868 5.703686,0 10.662454,-3.10872 13.334453,-7.70764 l 7.219234,0 0,-5.13842 -5.369405,0 c 0.128467,-0.84784 0.230986,-1.69567 0.230986,-2.56921 l 0,-2.56921 5.138419,0 0,-5.13842 -5.138419,0 0,-2.56922 c 0,-0.75018 -0.08221,-1.48046 -0.184983,-2.20903 z m -35.783975,15.05509 0,3.18974 3.189737,-3.18974 -3.189737,0 z"
         style="fill:#ffffff" />
      <rect
         transform="matrix(0.70710678,-0.70710678,0.70710678,0.70710678,0,0)"
         y="731.51654"
         x="-674.97266"
         height="5.3151774"
         width="62.010242"
         id="rect4319"
         style="fill:#ffffff;fill-opacity:1;fill-rule:evenodd;stroke:none;stroke-width:1;stroke-miterlimit:4;stroke-dasharray:none;stroke-opacity:0.53892212" />
    </g>
  </g>
</svg>
