<?xml version="1.0" encoding="UTF-8" standalone="no"?>
<!-- Created with Inkscape (http://www.inkscape.org/) -->

<svg
   xmlns:dc="http://purl.org/dc/elements/1.1/"
   xmlns:cc="http://creativecommons.org/ns#"
   xmlns:rdf="http://www.w3.org/1999/02/22-rdf-syntax-ns#"
   xmlns:svg="http://www.w3.org/2000/svg"
   xmlns="http://www.w3.org/2000/svg"
   xmlns:sodipodi="http://sodipodi.sourceforge.net/DTD/sodipodi-0.dtd"
   xmlns:inkscape="http://www.inkscape.org/namespaces/inkscape"
   width="128"
   height="128"
   viewBox="0 0 128 128"
   id="svg2"
   version="1.1"
   inkscape:version="0.91 r"
   sodipodi:docname="icon.svg">
  <defs
     id="defs4">
    <filter
       style="color-interpolation-filters:sRGB"
       inkscape:label="Drop Shadow"
       id="filter3470">
      <feFlood
         flood-opacity="0.501961"
         flood-color="rgb(0,0,0)"
         result="flood"
         id="feFlood3472" />
      <feComposite
         in="flood"
         in2="SourceGraphic"
         operator="in"
         result="composite1"
         id="feComposite3474" />
      <feGaussianBlur
         in="composite1"
         stdDeviation="5"
         result="blur"
         id="feGaussianBlur3476" />
      <feOffset
         dx="0"
         dy="3"
         result="offset"
         id="feOffset3478" />
      <feComposite
         in="SourceGraphic"
         in2="offset"
         operator="over"
         result="composite2"
         id="feComposite3480" />
    </filter>
  </defs>
  <sodipodi:namedview
     id="base"
     pagecolor="#ffffff"
     bordercolor="#666666"
     borderopacity="1.0"
     inkscape:pageopacity="0.0"
     inkscape:pageshadow="2"
     inkscape:zoom="1.979899"
     inkscape:cx="23.175038"
     inkscape:cy="125.0352"
     inkscape:document-units="px"
     inkscape:current-layer="g4300"
     showgrid="true"
     units="px"
     inkscape:window-width="1920"
     inkscape:window-height="1031"
     inkscape:window-x="1920"
     inkscape:window-y="49"
     inkscape:window-maximized="0">
    <inkscape:grid
       type="xygrid"
       id="grid3336"
       enabled="false" />
  </sodipodi:namedview>
  <metadata
     id="metadata7">
    <rdf:RDF>
      <cc:Work
         rdf:about="">
        <dc:format>image/svg+xml</dc:format>
        <dc:type
           rdf:resource="http://purl.org/dc/dcmitype/StillImage" />
        <dc:title></dc:title>
      </cc:Work>
    </rdf:RDF>
  </metadata>
  <g
     inkscape:label="Layer 1"
     inkscape:groupmode="layer"
     id="layer1"
     transform="translate(0,-924.36216)">
    <circle
       style="fill:#00897b;fill-opacity:1;fill-rule:evenodd;stroke:none;stroke-width:1;stroke-miterlimit:4;stroke-dasharray:none;stroke-opacity:0.53892212;filter:url(#filter3470)"
       id="path3338"
       cx="127.5"
       cy="924.86218"
       r="106.42857"
       transform="matrix(0.50111853,0,0,0.50111853,-0.10690467,525.1109)" />
    <g
       id="g4300"
       transform="translate(0,-4.708796)">
      <text
         sodipodi:linespacing="100%"
         id="text3340"
         y="1014.8288"
         x="63.605614"
         style="font-style:normal;font-weight:normal;font-size:8.38301659px;line-height:100%;font-family:sans-serif;text-align:center;letter-spacing:0px;word-spacing:0px;text-anchor:middle;fill:#000000;fill-opacity:1;stroke:none;stroke-width:1px;stroke-linecap:butt;stroke-linejoin:miter;stroke-opacity:1"
         xml:space="preserve"><tspan
           style="font-style:normal;font-variant:normal;font-weight:500;font-stretch:normal;font-size:20.04474068px;font-family:Roboto;-inkscape-font-specification:'Roboto Medium';fill:#ffffff"
           y="1014.8288"
           x="63.605614"
           id="tspan3342"
           sodipodi:role="line">NATIVE</tspan><tspan
           style="font-style:normal;font-variant:normal;font-weight:500;font-stretch:normal;font-size:16.76603317px;font-family:Roboto;-inkscape-font-specification:'Roboto Medium';fill:#ffffff"
           y="1032.278"
           x="63.605614"
           sodipodi:role="line"
           id="tspan4306">DEBUG</tspan></text>
      <path
         style="fill:#ffffff"
         d="m 54.812555,949.43739 -3.622346,3.62235 4.161634,4.18806 c -1.901223,1.3103 -3.493878,3.03165 -4.650029,5.03565 l -7.219236,0 0,5.13842 5.369407,0 C 48.72352,968.26972 48.621,969.11755 48.621,969.99108 l 0,2.56922 -5.138422,0 0,5.13842 5.138422,0 0,2.56921 c 0,0.20262 0.0065,0.40371 0.01664,0.60389 l 10.260204,-10.26021 0,-3.18974 3.18974,0 14.578435,-14.57844 -3.406037,-3.40604 -5.574944,5.57495 c -1.181843,-0.28261 -2.364157,-0.43652 -3.648769,-0.43652 -1.284613,0 -2.466195,0.15391 -3.622346,0.43652 l -5.601367,-5.57495 z m 29.7774,13.02126 -4.963223,4.96322 4.963223,0 0,-4.96322 z m -5.323402,5.3234 -10.091861,10.09186 0,4.96323 -4.963228,0 -9.607385,9.60738 c 2.604379,2.02784 5.872939,3.23868 9.432189,3.23868 5.703686,0 10.662454,-3.10872 13.334453,-7.70764 l 7.219234,0 0,-5.13842 -5.369405,0 c 0.128467,-0.84784 0.230986,-1.69567 0.230986,-2.56921 l 0,-2.56921 5.138419,0 0,-5.13842 -5.138419,0 0,-2.56922 c 0,-0.75018 -0.08221,-1.48046 -0.184983,-2.20903 z m -35.783975,15.05509 0,3.18974 3.189737,-3.18974 -3.189737,0 z"
         id="path4310"
         inkscape:connector-curvature="0" />
      <rect
         style="fill:#ffffff;fill-opacity:1;fill-rule:evenodd;stroke:none;stroke-width:1;stroke-miterlimit:4;stroke-dasharray:none;stroke-opacity:0.53892212"
         id="rect4319"
         width="62.010242"
         height="5.3151774"
         x="-674.97266"
         y="731.51654"
         transform="matrix(0.70710678,-0.70710678,0.70710678,0.70710678,0,0)" />
    </g>
  </g>
</svg>
