<!-- Original MS Restart with an inner circle with a bounding box -->
<svg width="16" height="16" viewBox="0 0 16 16" fill="none" xmlns="http://www.w3.org/2000/svg">
<path fill-rule="evenodd" clip-rule="evenodd" d="M12.75 7.99988C12.75 10.4852 10.7353 12.4999 8.24999 12.4999C6.41795 12.4999 4.84162 11.4051 4.13953 9.83404L2.74882 10.3989C3.67446 12.5185 5.78923 13.9999 8.24999 13.9999C11.5637 13.9999 14.25 11.3136 14.25 7.99988C14.25 4.68617 11.5637 1.99988 8.24999 1.99988C6.3169 1.99988 4.59732 2.91406 3.5 4.33367V2.49988H2V6.49988L2.75 7.24988H6.25V5.74988H4.35201C5.13008 4.40482 6.58436 3.49988 8.24999 3.49988C10.7353 3.49988 12.75 5.5146 12.75 7.99988Z" fill="#89D185"/>
<circle cx="8.3" cy="8" r="2.3" fill="#ff00f7" />
<rect x="0" y="0" width="16" height="16" fill="none" stroke="none" stroke-width="0.1" />
</svg>
